PathFileType	4	(X/Y/Z)	/Users/itak/Documents/Research/Walk-IL/dataset/trc/00374_00011.trc
DataRate	CameraRate	NumFrames	NumMarkers	Units	OrigDataRate	OrigDataStartFrame	OrigNumFrames
100.000000	100.000000	4	54	mm	100.000000	399	532
Frame#	Time	RPSI			LPSI			L3			STRN			T10			C7			CLAV			RBAK			LBAK			LSHO			LUPA			LAEL			LAOL			LWTS			LWPS			LFRA			LIFD			LHPS			LHTS			RSHO			RUPA			RAEL			RAOL			RWTS			RWPS			RFRA			RIFD			RHTS			RHPS			RBHD			LFHD			RFHD			LBHD			LHIP			RHIP			RASI			LASI			LKNE			LTHI			LANK			LTIP			LTOE			LMT1			LMT5			LHEE			RKNE			RTHI			RANK			RTIP			RTOE			RMT1			RMT5			RHEE			*53			
		X1	Y1	Z1	X2	Y2	Z2	X3	Y3	Z3	X4	Y4	Z4	X5	Y5	Z5	X6	Y6	Z6	X7	Y7	Z7	X8	Y8	Z8	X9	Y9	Z9	X10	Y10	Z10	X11	Y11	Z11	X12	Y12	Z12	X13	Y13	Z13	X14	Y14	Z14	X15	Y15	Z15	X16	Y16	Z16	X17	Y17	Z17	X18	Y18	Z18	X19	Y19	Z19	X20	Y20	Z20	X21	Y21	Z21	X22	Y22	Z22	X23	Y23	Z23	X24	Y24	Z24	X25	Y25	Z25	X26	Y26	Z26	X27	Y27	Z27	X28	Y28	Z28	X29	Y29	Z29	X30	Y30	Z30	X31	Y31	Z31	X32	Y32	Z32	X33	Y33	Z33	X34	Y34	Z34	X35	Y35	Z35	X36	Y36	Z36	X37	Y37	Z37	X38	Y38	Z38	X39	Y39	Z39	X40	Y40	Z40	X41	Y41	Z41	X42	Y42	Z42	X43	Y43	Z43	X44	Y44	Z44	X45	Y45	Z45	X46	Y46	Z46	X47	Y47	Z47	X48	Y48	Z48	X49	Y49	Z49	X50	Y50	Z50	X51	Y51	Z51	X52	Y52	Z52	X53	Y53	Z53	X54	Y54	Z54	

400	3.99	307.7261352539062	943.9535522460938	652.1862182617188	437.0621032714844	939.5032348632812	656.8906860351562	362.5502014160156	1001.735595703125	651.8521118164062	364.6279907226562	1185.364379882812	889.21875	361.0371704101562	1122.103149414062	644.0455932617188	371.6352844238281	1370.104614257812	694.9522705078125	366.1310424804688	1311.330444335938	847.9478149414062	306.3948059082031	1229.9287109375	643.6187744140625	471.1351623535156	1335.93896484375	679.8931884765625	529.4025268554688	1349.64208984375	763.5818481445312	592.1788330078125	1233.2275390625	722.5723266601562	595.518798828125	1031.914794921875	691.3539428710938	532.0199584960938	1034.620971679688	634.7376708984375	548.3504638671875	771.0291748046875	716.1517333984375	604.4335327148438	772.176025390625	675.5487060546875	600.8654174804688	927.8758544921875	678.613037109375	533.4539794921875	616.8062133789062	661.8218383789062	594.0088500976562	707.080322265625	647.2913208007812	557.6239013671875	691.1994018554688	697.733642578125	209.1492309570312	1356.654541015625	745.9342041015625	146.3083190917969	1292.124389648438	731.97509765625	88.72342681884766	1028.596069335938	758.3916625976562	172.7471771240234	1011.317016601562	719.3494262695312	184.6329956054688	901.1991577148438	955.318115234375	117.6162109375	863.5884399414062	950.285400390625	89.59970855712891	977.9365234375	810.5991821289062	209.8218688964844	771.9037475585938	1067.466918945312	191.6494140625	836.3971557617188	1039.584594726562	137.7090301513672	804.7266235351562	1008.837707519531	284.9461059570312	1579.718139648438	764.0286254882812	400.1349487304688	1566.076904296875	937.6835327148438	299.6771545410156	1566.992065429688	925.8259887695312	429.4379577636719	1577.984741210938	753.89404296875	536.3175048828125	884.2134399414062	747.8853149414062	194.8196411132812	888.7216796875	726.2818603515625	231.9488525390625	914.0186157226562	834.596435546875	469.3891906738281	916.0360107421875	864.8419799804688	517.9806518554688	457.9888000488281	947.0145263671875	538.5909423828125	584.9357299804688	891.6345825195312	502.3806457519531	39.07338333129883	1050.05029296875	525.7817993164062	246.3941192626953	994.74072265625	468.8666076660156	119.7961120605469	1244.388793945312	417.9252624511719	91.38121795654297	1188.306518554688	529.11767578125	73.22993469238281	1168.073974609375	430.7080383300781	34.74844741821289	1025.649536132812	263.2782897949219	424.9027404785156	727.2642211914062	211.3026885986328	675.0224609375	783.7345581054688	324.5303344726562	65.02505493164062	523.1185913085938	292.7405700683594	306.4367065429688	694.6023559570312	418.0316467285156	39.33246994018555	695.1213989257812	446.4241638183594	40.66739273071289	632.2068481445312	328.4951477050781	38.54190826416016	622.3509521484375	360.7804565429688	82.45542907714844	466.3469848632812	nan	nan	nan	
401	4	310.2522583007812	943.17041015625	660.728759765625	439.5093078613281	938.6317749023438	666.3233642578125	364.9814147949219	1000.647644042969	660.5848388671875	366.0240478515625	1184.908203125	897.590576171875	363.7175598144531	1121.087158203125	652.3909912109375	374.0713195800781	1369.197631835938	702.8223876953125	367.8208923339844	1310.861694335938	856.069091796875	309.1488037109375	1228.949829101562	651.35400390625	473.7313842773438	1334.92578125	688.3662109375	531.5314331054688	1348.880126953125	772.3536376953125	594.5709838867188	1232.161743164062	732.1874389648438	598.4541015625	1030.651000976562	702.3316650390625	535.3877563476562	1032.964965820312	645.2129516601562	551.2135009765625	769.824951171875	728.2549438476562	607.711669921875	770.9423828125	688.2544555664062	603.934814453125	926.5706176757812	690.3433227539062	537.4055786132812	615.211669921875	674.995361328125	597.730712890625	705.620849609375	660.42529296875	560.6893920898438	689.66162109375	710.297607421875	211.2962493896484	1355.656860351562	753.0510864257812	148.6247253417969	1291.114501953125	738.7152099609375	91.43019866943359	1027.426635742188	763.4577026367188	175.7757873535156	1010.497253417969	724.8952026367188	185.3576049804688	895.4976196289062	958.7401733398438	117.9830093383789	858.7243041992188	952.6370239257812	91.75265502929688	975.8489990234375	815.0055541992188	208.7147674560547	763.7855834960938	1068.375854492188	191.3064422607422	828.8236694335938	1041.591186523438	137.0202026367188	798.4666137695312	1010.112976074219	287.0335083007812	1578.888671875	770.8574829101562	401.334716796875	1565.982055664062	945.07666015625	300.9121704101562	1566.837158203125	932.731689453125	431.4842224121094	1577.14794921875	761.3496704101562	537.7731323242188	883.2429809570312	757.8389892578125	196.6284790039062	888.029541015625	733.8438720703125	232.8922424316406	913.270263671875	842.6312866210938	470.1686096191406	915.5645141601562	874.481689453125	515.9375610351562	457.6938171386719	958.0233764648438	537.4937133789062	584.7256469726562	902.7635498046875	498.3200988769531	38.35490798950195	1053.120483398438	521.9358520507812	244.8078460693359	1002.73779296875	461.4561157226562	112.9457778930664	1248.844360351562	411.5675964355469	85.33153533935547	1191.37939453125	522.9508056640625	69.42455291748047	1172.183349609375	427.1191711425781	33.69157028198242	1027.726318359375	263.763916015625	424.3583068847656	734.1436767578125	212.0839538574219	674.277587890625	790.9478149414062	324.4110107421875	67.41207122802734	524.24560546875	292.6841125488281	306.1656494140625	699.7092895507812	417.9568481445312	39.38892364501953	695.3124389648438	446.2715759277344	41.31911849975586	632.624755859375	328.3192443847656	38.82093048095703	623.0178833007812	360.6377563476562	86.15590667724609	467.7747497558594	nan	nan	nan	
402	4.01	312.6650085449219	942.4454956054688	669.4625854492188	441.8652954101562	937.9505615234375	675.9574584960938	367.3439331054688	999.643310546875	669.5401611328125	367.3863830566406	1184.643188476562	906.0521240234375	366.3464965820312	1120.183349609375	660.8214721679688	376.5571899414062	1368.40576171875	710.72607421875	369.5005798339844	1310.539916992188	864.2150268554688	311.9513854980469	1228.085571289062	659.1797485351562	476.3560791015625	1333.992797851562	696.904541015625	533.681884765625	1348.220458984375	781.1829223632812	596.9717407226562	1231.192138671875	741.9154663085938	601.4535522460938	1029.466064453125	713.5437622070312	538.8005981445312	1031.333618164062	655.951416015625	554.2020874023438	768.7151489257812	740.7703857421875	611.0918579101562	769.8045043945312	701.3630981445312	607.0907592773438	925.3462524414062	702.3652954101562	541.4310913085938	613.5856323242188	688.6502685546875	601.5691528320312	704.2484741210938	674.0350341796875	563.9647216796875	688.3120727539062	723.4552612304688	213.4777984619141	1354.826782226562	760.1666259765625	150.9634094238281	1290.272094726562	745.4530639648438	94.25054168701172	1026.429321289062	768.5431518554688	178.9243774414062	1009.867309570312	730.46533203125	185.961181640625	889.5765380859375	961.8640747070312	118.2281341552734	853.7219848632812	954.5961303710938	93.94109344482422	973.8651123046875	819.3092651367188	207.4030303955078	755.371826171875	1068.69775390625	190.7610015869141	820.8980712890625	1043.097412109375	136.1087646484375	791.9932861328125	1010.8525390625	289.1140747070312	1578.221313476562	777.72265625	402.5377502441406	1566.024658203125	952.503662109375	302.1510925292969	1566.810180664062	939.6679077148438	433.5327453613281	1576.512451171875	768.83984375	539.2598876953125	882.6123046875	768.1798095703125	198.3528594970703	887.3289184570312	741.5756225585938	233.7269897460938	912.5353393554688	850.8417358398438	470.8306274414062	915.2783203125	884.3250122070312	513.9932250976562	457.5902099609375	969.0745849609375	536.3379516601562	584.6837158203125	913.9614868164062	494.9850769042969	37.9398307800293	1055.594482421875	518.44140625	243.4732971191406	1010.662414550781	453.8025817871094	105.6076126098633	1252.689331054688	405.3016967773438	78.84159851074219	1193.585083007812	516.9097290039062	65.62550354003906	1175.8115234375	424.3619689941406	32.84960174560547	1028.968994140625	264.177978515625	423.8034973144531	741.4574584960938	212.7918090820312	673.5585327148438	798.4657592773438	324.3178100585938	70.05898284912109	525.5722045898438	292.5077819824219	305.9744262695312	705.14013671875	417.8644409179688	39.46493530273438	695.5256958007812	446.1104125976562	42.05340576171875	633.1516723632812	328.1463317871094	39.06629943847656	623.7410888671875	360.5565490722656	90.24978637695312	469.5180358886719	nan	nan	nan	
403	4.02	314.9475402832031	941.8042602539062	678.367919921875	444.1161804199219	937.483642578125	685.7623291015625	369.6259460449219	998.75244140625	678.6978149414062	368.6986694335938	1184.589477539062	914.5927734375	368.9221801757812	1119.419677734375	669.327392578125	379.0904846191406	1367.756713867188	718.66259765625	371.1591796875	1310.3837890625	872.3787841796875	314.7965393066406	1227.362670898438	667.0923461914062	479.0069885253906	1333.161254882812	705.511962890625	535.8485107421875	1347.675903320312	790.079833984375	599.3751831054688	1230.332641601562	751.7762451171875	604.510498046875	1028.378051757812	724.9920043945312	542.251953125	1029.745971679688	666.9525756835938	557.3048706054688	767.728759765625	753.69482421875	614.5579223632812	768.7811889648438	714.8585205078125	610.3225708007812	924.2190551757812	714.6649169921875	545.5194702148438	611.9656982421875	702.8029174804688	605.500732421875	702.9890747070312	688.1015014648438	567.473876953125	687.2242431640625	737.2462768554688	215.6841278076172	1354.191162109375	767.275390625	153.3197174072266	1289.619506835938	752.1809692382812	97.20023345947266	1025.62451171875	773.6713256835938	182.2042694091797	1009.447326660156	736.085205078125	186.428955078125	883.4822387695312	964.6749267578125	118.3464050292969	848.6246948242188	956.135986328125	96.17129516601562	972.0118408203125	823.5156860351562	205.8667602539062	746.7266235351562	1068.400756835938	189.9892425537109	812.6964721679688	1044.086669921875	134.9873809814453	785.3626098632812	1011.019165039062	291.1875	1577.7451171875	784.61572265625	403.7333374023438	1566.22607421875	959.9617309570312	303.3882751464844	1566.931518554688	946.6279296875	435.5856628417969	1576.104858398438	776.3663330078125	540.7973022460938	882.3700561523438	778.90283203125	199.9833679199219	886.6495361328125	749.4783325195312	234.4625549316406	911.841796875	859.2120971679688	471.3796081542969	915.1915283203125	894.3394165039062	512.1926879882812	457.6879577636719	980.138427734375	535.1486206054688	584.8099365234375	925.1846313476562	492.3963317871094	37.84622192382812	1057.721435546875	515.3923950195312	242.4574432373047	1018.602355957031	446.202880859375	98.07772064208984	1256.102172851562	399.3378601074219	72.21520233154297	1195.180541992188	511.1806640625	61.96960067749023	1179.131958007812	422.4223022460938	32.31089782714844	1029.70068359375	264.4701843261719	423.2619018554688	749.2400512695312	213.4114990234375	672.9053344726562	806.3140258789062	324.2473754882812	72.98895263671875	527.14306640625	292.163330078125	305.900390625	710.9329833984375	417.756103515625	39.56149291992188	695.7595825195312	445.9441833496094	42.8668212890625	633.8135375976562	327.9844360351562	39.25836181640625	624.522216796875	360.5353088378906	94.77059173583984	471.656494140625	nan	nan	nan	
